<svg width="299" height="56" viewBox="0 0 299 56" fill="none" xmlns="http://www.w3.org/2000/svg">
<path d="M20.2297 21.6099H3.05176e-05V42.2197H20.2297V21.6099Z" fill="#242424"/>
<path d="M40.4595 1H20.2298V21.6098H40.4595V1Z" fill="#242424"/>
<path d="M32.7368 42.2578H20.2298V54.9998H32.7368V42.2578Z" fill="#242424"/>
<path d="M279.976 54.5779C275.983 54.5779 272.554 53.7336 269.654 52.0832C266.791 50.4329 264.606 48.0918 263.024 45.0214C261.517 41.951 260.726 38.3817 260.726 34.2751C260.726 30.1685 261.517 26.5609 263.099 23.5289C264.681 20.4585 266.866 18.1174 269.729 16.3903C272.592 14.7016 275.983 13.8188 279.976 13.8188C283.969 13.8188 287.284 14.6632 290.147 16.3903C293.01 18.1174 295.195 20.4969 296.702 23.6056C298.209 26.676 299 30.2453 299 34.4287C299 38.612 298.247 42.0278 296.702 45.0982C295.233 48.0918 293.048 50.4329 290.223 52.0832C287.359 53.7336 283.969 54.5779 279.976 54.5779ZM279.9 46.2496C282.349 46.2496 284.308 45.7122 285.815 44.5992C287.322 43.4862 288.452 42.0278 289.13 40.2623C289.808 38.4585 290.147 36.5012 290.147 34.3903C290.147 32.2794 289.808 30.322 289.13 28.4798C288.452 26.6376 287.322 25.1408 285.815 24.0662C284.346 22.9148 282.387 22.3391 279.9 22.3391C277.414 22.3391 275.455 22.9148 273.948 24.0662C272.441 25.1792 271.311 26.6376 270.633 28.4798C269.955 30.2837 269.616 32.241 269.616 34.3903C269.616 36.5395 269.955 38.4585 270.633 40.3007C271.387 42.1046 272.479 43.563 273.948 44.6376C275.455 45.6739 277.452 46.2112 279.9 46.2112V46.2496Z" fill="#242424"/>
<path d="M246.636 54.0791V14.5098H255.64V54.0791H246.636Z" fill="#242424"/>
<path d="M202.335 54.0791L216.047 33.8914L203.088 14.5098H213.561L221.961 27.7891L230.136 14.5098H240.383L227.424 34.0833L241.362 54.0407H230.814L221.622 40.3776L212.431 54.0407H202.335V54.0791Z" fill="#242424"/>
<path d="M183.386 54.5776C179.355 54.5776 175.927 53.7333 173.063 52.0062C170.276 50.3175 168.128 47.938 166.659 44.9444C165.228 41.874 164.512 38.3815 164.512 34.3516C164.512 30.3218 165.265 26.8292 166.735 23.7589C168.242 20.6501 170.426 18.2322 173.214 16.4667C176.077 14.7013 179.468 13.8569 183.461 13.8569C187.454 13.8569 188.999 14.3942 191.184 15.5073C193.406 16.5435 195.252 18.0019 196.721 19.8441C198.228 21.6864 199.358 23.7972 200.112 26.1384C200.865 28.4795 201.204 30.9742 201.129 33.584C201.129 34.1981 201.016 34.7738 200.978 35.3879C200.978 35.9252 200.865 36.5392 200.752 37.1917H173.478C173.629 38.9572 174.081 40.5307 174.796 41.9891C175.587 43.4476 176.68 44.5989 178.036 45.4433C179.468 46.2876 181.238 46.7098 183.348 46.7098C185.457 46.7098 185.759 46.5563 186.889 46.2493C188.019 45.9038 188.999 45.4049 189.827 44.7525C190.694 44.1 191.297 43.294 191.598 42.2578H200.601C199.961 45.0979 198.793 47.439 197.06 49.2429C195.327 51.0467 193.293 52.39 190.882 53.2343C188.509 54.0787 186.023 54.5009 183.386 54.5009V54.5776ZM173.629 30.4369H192.351C192.351 28.7866 191.975 27.2898 191.259 25.9465C190.505 24.6032 189.451 23.5286 188.094 22.7994C186.776 21.9934 185.156 21.6096 183.235 21.6096C181.314 21.6096 179.468 22.0318 178.074 22.8761C176.68 23.7205 175.663 24.8335 174.909 26.1768C174.156 27.52 173.742 28.9401 173.666 30.4753H173.629V30.4369Z" fill="#242424"/>
<path d="M123.601 54.0789V14.5096H132.001V19.5373C133.019 18.1173 134.752 17.0426 136.145 16.2367C137.539 15.4307 138.971 14.855 140.478 14.5096C141.984 14.1258 143.416 13.8955 144.735 13.8955C148.426 13.8955 151.327 14.7399 153.437 16.3902C155.584 18.0405 157.128 20.2281 157.995 22.9915C158.861 25.7548 159.313 28.8251 159.313 32.2409V54.0789H150.31V33.7377C150.31 32.2793 150.197 30.8976 150.009 29.5544C149.82 28.1343 149.406 26.9062 148.841 25.7932C148.313 24.6802 147.522 23.7974 146.467 23.1834C145.413 22.5693 144.056 22.2239 142.361 22.2239C140.666 22.2239 138.443 22.7996 136.974 23.9509C135.505 25.1023 134.412 26.6375 133.659 28.5949C132.906 30.5138 132.567 32.6631 132.567 35.1194V54.1173H123.563L123.601 54.0789Z" fill="#242424"/>
<path d="M107.666 54.0791V14.5098H116.669V54.0791H107.666Z" fill="#242424"/>
<path d="M60.6513 54.0789V1H69.8432V23.8358H77.3022L92.0318 1H102.505L85.1002 26.9829L102.505 54.0789H91.8058L77.7166 32.3945H69.8432V54.0789H60.6513Z" fill="#242424"/>
<path d="M116.669 1H107.666V10.1727H116.669V1Z" fill="#242424"/>
<path d="M255.64 1H246.636V10.1727H255.64V1Z" fill="#242424"/>
</svg>
