<svg width="299" height="54" viewBox="0 0 299 54" fill="none" xmlns="http://www.w3.org/2000/svg">
<path d="M20.2297 20.6099H0V41.2197H20.2297V20.6099Z" fill="#242424"/>
<path d="M40.4597 0H20.23V20.6098H40.4597V0Z" fill="#242424"/>
<path d="M32.737 41.2579H20.23V53.9999H32.737V41.2579Z" fill="#242424"/>
<path d="M279.976 53.5778C275.983 53.5778 272.554 52.7334 269.654 51.0831C266.791 49.4328 264.606 47.0916 263.024 44.0213C261.517 40.9509 260.726 37.3816 260.726 33.275C260.726 29.1684 261.517 25.5607 263.099 22.5287C264.681 19.4584 266.866 17.1172 269.729 15.3902C272.592 13.7015 275.983 12.8187 279.976 12.8187C283.969 12.8187 287.284 13.6631 290.147 15.3902C293.01 17.1172 295.195 19.4968 296.702 22.6055C298.209 25.6759 299 29.2452 299 33.4285C299 37.6119 298.247 41.0277 296.702 44.098C295.233 47.0916 293.048 49.4328 290.223 51.0831C287.359 52.7334 283.969 53.5778 279.976 53.5778ZM279.9 45.2494C282.349 45.2494 284.308 44.7121 285.815 43.5991C287.322 42.4861 288.452 41.0277 289.13 39.2622C289.808 37.4584 290.147 35.501 290.147 33.3902C290.147 31.2793 289.808 29.3219 289.13 27.4797C288.452 25.6375 287.322 24.1407 285.815 23.0661C284.346 21.9147 282.387 21.339 279.9 21.339C277.414 21.339 275.455 21.9147 273.948 23.0661C272.441 24.1791 271.311 25.6375 270.633 27.4797C269.955 29.2835 269.616 31.2409 269.616 33.3902C269.616 35.5394 269.955 37.4584 270.633 39.3006C271.387 41.1044 272.479 42.5629 273.948 43.6375C275.455 44.6737 277.452 45.2111 279.9 45.2111V45.2494Z" fill="#242424"/>
<path d="M246.636 53.0789V13.5096H255.64V53.0789H246.636Z" fill="#242424"/>
<path d="M202.334 53.0789L216.047 32.8912L203.088 13.5096H213.561L221.961 26.7889L230.136 13.5096H240.383L227.424 33.0831L241.362 53.0405H230.814L221.622 39.3774L212.43 53.0405H202.334V53.0789Z" fill="#242424"/>
<path d="M183.386 53.5778C179.355 53.5778 175.927 52.7335 173.064 51.0064C170.276 49.3177 168.129 46.9381 166.659 43.9445C165.228 40.8742 164.512 37.3816 164.512 33.3518C164.512 29.3219 165.266 25.8294 166.735 22.759C168.242 19.6503 170.427 17.2324 173.214 15.4669C176.077 13.7015 179.468 12.8571 183.461 12.8571C187.454 12.8571 188.999 13.3944 191.184 14.5074C193.406 15.5437 195.252 17.0021 196.721 18.8443C198.228 20.6865 199.358 22.7974 200.112 25.1386C200.865 27.4797 201.204 29.9744 201.129 32.5842C201.129 33.1983 201.016 33.774 200.978 34.388C200.978 34.9253 200.865 35.5394 200.752 36.1919H173.478C173.629 37.9573 174.081 39.5309 174.797 40.9893C175.588 42.4477 176.68 43.5991 178.036 44.4435C179.468 45.2878 181.238 45.71 183.348 45.71C185.458 45.71 185.759 45.5565 186.889 45.2494C188.019 44.904 188.999 44.4051 189.828 43.7526C190.694 43.1002 191.297 42.2942 191.598 41.258H200.602C199.961 44.0981 198.793 46.4392 197.061 48.243C195.328 50.0469 193.293 51.3902 190.882 52.2345C188.509 53.0789 186.023 53.501 183.386 53.501V53.5778ZM173.629 29.4371H192.352C192.352 27.7868 191.975 26.29 191.259 24.9467C190.506 23.6034 189.451 22.5288 188.095 21.7995C186.776 20.9936 185.156 20.6098 183.235 20.6098C181.314 20.6098 179.468 21.032 178.074 21.8763C176.68 22.7207 175.663 23.8337 174.91 25.1769C174.156 26.5202 173.742 27.9403 173.666 29.4755H173.629V29.4371Z" fill="#242424"/>
<path d="M123.601 53.0789V13.5096H132.001V18.5373C133.019 17.1173 134.751 16.0426 136.145 15.2367C137.539 14.4307 138.971 13.855 140.478 13.5096C141.984 13.1258 143.416 12.8955 144.734 12.8955C148.426 12.8955 151.327 13.7399 153.437 15.3902C155.584 17.0405 157.128 19.2281 157.995 21.9915C158.861 24.7548 159.313 27.8251 159.313 31.2409V53.0789H150.31V32.7377C150.31 31.2793 150.197 29.8976 150.008 28.5544C149.82 27.1343 149.406 25.9062 148.841 24.7932C148.313 23.6802 147.522 22.7974 146.467 22.1834C145.413 21.5693 144.056 21.2239 142.361 21.2239C140.666 21.2239 138.443 21.7996 136.974 22.9509C135.505 24.1023 134.412 25.6375 133.659 27.5949C132.906 29.5138 132.567 31.6631 132.567 34.1194V53.1173H123.563L123.601 53.0789Z" fill="#242424"/>
<path d="M107.666 53.0789V13.5096H116.669V53.0789H107.666Z" fill="#242424"/>
<path d="M60.6514 53.0789V0H69.8433V22.8358H77.3022L92.0319 0H102.505L85.1003 25.9829L102.505 53.0789H91.8058L77.7166 31.3945H69.8433V53.0789H60.6514Z" fill="#242424"/>
<path d="M116.669 0H107.666V9.17271H116.669V0Z" fill="#242424"/>
<path d="M255.64 0H246.636V9.17271H255.64V0Z" fill="#242424"/>
</svg>