<svg width="12" height="13" viewBox="0 0 12 13" fill="none" xmlns="http://www.w3.org/2000/svg">
<path d="M5.9998 8.01309L2.0998 11.8881C1.91647 12.0714 1.6873 12.1673 1.4123 12.1756C1.1373 12.1839 0.899805 12.0881 0.699805 11.8881C0.516471 11.7048 0.424805 11.4714 0.424805 11.1881C0.424805 10.9048 0.516471 10.6714 0.699805 10.4881L4.5748 6.61309C4.95814 6.22975 5.43314 6.03809 5.9998 6.03809C6.56647 6.03809 7.04147 6.22975 7.4248 6.61309L11.2998 10.4881C11.4831 10.6714 11.579 10.9006 11.5873 11.1756C11.5956 11.4506 11.4998 11.6881 11.2998 11.8881C11.1165 12.0714 10.8831 12.1631 10.5998 12.1631C10.3165 12.1631 10.0831 12.0714 9.89981 11.8881L5.9998 8.01309ZM5.9998 2.01309L2.0998 5.88809C1.91647 6.07142 1.6873 6.16725 1.4123 6.17559C1.1373 6.18392 0.899805 6.08809 0.699805 5.88809C0.516471 5.70475 0.424805 5.47142 0.424805 5.18809C0.424805 4.90475 0.516471 4.67142 0.699805 4.48809L4.5748 0.613086C4.95814 0.229753 5.43314 0.0380859 5.9998 0.0380859C6.56647 0.0380859 7.04147 0.229753 7.4248 0.613086L11.2998 4.48809C11.4831 4.67142 11.579 4.90059 11.5873 5.17559C11.5956 5.45059 11.4998 5.68809 11.2998 5.88809C11.1165 6.07142 10.8831 6.16309 10.5998 6.16309C10.3165 6.16309 10.0831 6.07142 9.89981 5.88809L5.9998 2.01309Z" fill="#FF8F60"/>
</svg>
