<svg width="12" height="13" viewBox="0 0 12 13" fill="none" xmlns="http://www.w3.org/2000/svg">
<path d="M6.00996 4.20054L9.90996 0.325537C10.0933 0.142203 10.3225 0.0463704 10.5975 0.0380372C10.8725 0.0297031 11.11 0.125537 11.31 0.325537C11.4933 0.50887 11.585 0.742204 11.585 1.02554C11.585 1.30887 11.4933 1.5422 11.31 1.72554L7.43496 5.60054C7.05163 5.98387 6.57663 6.17554 6.00996 6.17554C5.44329 6.17554 4.96829 5.98387 4.58496 5.60054L0.709962 1.72554C0.526628 1.5422 0.430795 1.31304 0.422462 1.03804C0.414128 0.763036 0.509962 0.525536 0.709962 0.325536C0.893295 0.142202 1.12663 0.0505362 1.40996 0.0505362C1.6933 0.0505362 1.92663 0.142202 2.10996 0.325536L6.00996 4.20054ZM6.00996 10.2005L9.90996 6.32554C10.0933 6.1422 10.3225 6.04637 10.5975 6.03804C10.8725 6.0297 11.11 6.12554 11.31 6.32554C11.4933 6.50887 11.585 6.7422 11.585 7.02554C11.585 7.30887 11.4933 7.5422 11.31 7.72554L7.43496 11.6005C7.05163 11.9839 6.57663 12.1755 6.00996 12.1755C5.44329 12.1755 4.96829 11.9839 4.58496 11.6005L0.709961 7.72554C0.526628 7.5422 0.430794 7.31304 0.422461 7.03804C0.414128 6.76304 0.509962 6.52554 0.709961 6.32554C0.893295 6.1422 1.12663 6.05054 1.40996 6.05054C1.6933 6.05054 1.92663 6.1422 2.10996 6.32554L6.00996 10.2005Z" fill="#FF8F60"/>
</svg>
