<svg width="12" height="8" viewBox="0 0 12 8" fill="none" xmlns="http://www.w3.org/2000/svg">
<path d="M6.00996 4.75137L9.90996 0.876367C10.0933 0.693034 10.3225 0.597201 10.5975 0.588867C10.8725 0.580534 11.11 0.676367 11.31 0.876367C11.4933 1.0597 11.585 1.29303 11.585 1.57637C11.585 1.8597 11.4933 2.09303 11.31 2.27637L6.70996 6.87637C6.60996 6.97637 6.50163 7.0472 6.38496 7.08887C6.26829 7.13053 6.14329 7.15137 6.00996 7.15137C5.87663 7.15137 5.75163 7.13053 5.63496 7.08887C5.51829 7.0472 5.40996 6.97637 5.30996 6.87637L0.709961 2.27637C0.526627 2.09303 0.430793 1.86387 0.42246 1.58887C0.414127 1.31387 0.509961 1.07637 0.70996 0.876368C0.893294 0.693035 1.12663 0.601368 1.40996 0.601368C1.69329 0.601368 1.92663 0.693035 2.10996 0.876368L6.00996 4.75137Z" fill="#4079ED"/>
</svg>
