<svg width="12" height="19" viewBox="0 0 12 19" fill="none" xmlns="http://www.w3.org/2000/svg">
<path d="M5.9998 13.9879L2.0998 17.8629C1.91647 18.0463 1.6873 18.1421 1.4123 18.1504C1.1373 18.1588 0.899805 18.0629 0.699805 17.8629C0.516471 17.6796 0.424805 17.4463 0.424805 17.1629C0.424805 16.8796 0.516471 16.6463 0.699805 16.4629L4.5748 12.5879C4.95814 12.2046 5.43314 12.0129 5.9998 12.0129C6.56647 12.0129 7.04147 12.2046 7.4248 12.5879L11.2998 16.4629C11.4831 16.6463 11.579 16.8754 11.5873 17.1504C11.5956 17.4254 11.4998 17.6629 11.2998 17.8629C11.1165 18.0463 10.8831 18.1379 10.5998 18.1379C10.3165 18.1379 10.0831 18.0463 9.89981 17.8629L5.9998 13.9879ZM5.9998 7.98794L2.0998 11.8629C1.91647 12.0463 1.6873 12.1421 1.4123 12.1504C1.1373 12.1588 0.899805 12.0629 0.699805 11.8629C0.516471 11.6796 0.424805 11.4463 0.424805 11.1629C0.424805 10.8796 0.516471 10.6463 0.699805 10.4629L4.5748 6.58794C4.95814 6.20461 5.43314 6.01294 5.9998 6.01294C6.56647 6.01294 7.04147 6.20461 7.4248 6.58794L11.2998 10.4629C11.4831 10.6463 11.579 10.8754 11.5873 11.1504C11.5956 11.4254 11.4998 11.6629 11.2998 11.8629C11.1165 12.0463 10.8831 12.1379 10.5998 12.1379C10.3165 12.1379 10.0831 12.0463 9.89981 11.8629L5.9998 7.98794ZM5.9998 1.98794L2.0998 5.86294C1.91647 6.04627 1.6873 6.14211 1.4123 6.15044C1.1373 6.15877 0.899805 6.06294 0.699805 5.86294C0.516471 5.67961 0.424805 5.44627 0.424805 5.16294C0.424805 4.87961 0.516471 4.64627 0.699805 4.46294L4.5748 0.587939C4.95814 0.204606 5.43314 0.0129395 5.9998 0.0129395C6.56647 0.0129395 7.04147 0.204606 7.4248 0.587939L11.2998 4.46294C11.4831 4.64627 11.579 4.87544 11.5873 5.15044C11.5956 5.42544 11.4998 5.66294 11.2998 5.86294C11.1165 6.04627 10.8831 6.13794 10.5998 6.13794C10.3165 6.13794 10.0831 6.04627 9.89981 5.86294L5.9998 1.98794Z" fill="#FF395D"/>
</svg>
